<?xml version="1.0" standalone="no"?>
<!DOCTYPE svg PUBLIC "-//W3C//DTD SVG 20010904//EN"
 "http://www.w3.org/TR/2001/REC-SVG-20010904/DTD/svg10.dtd">
<svg version="1.0" xmlns="http://www.w3.org/2000/svg"
 width="1080.000000pt" height="1080.000000pt" viewBox="0 0 1080.000000 1080.000000"
 preserveAspectRatio="xMidYMid meet">
<metadata>
Created by potrace 1.16, written by Peter Selinger 2001-2019
</metadata>
<g transform="translate(0.000000,1080.000000) scale(0.100000,-0.100000)"
fill="#000000" stroke="none">
<path d="M5324 7843 c-131 -136 -302 -313 -379 -393 -258 -266 -217 -236 -426
-314 -101 -38 -188 -72 -194 -76 -5 -4 -32 -14 -60 -24 -27 -10 -59 -21 -70
-26 -37 -16 -218 -88 -330 -131 -138 -53 -429 -172 -510 -209 -33 -15 -82 -37
-108 -49 -28 -13 -56 -19 -68 -16 -26 8 -99 -65 -99 -98 0 -22 71 -169 95
-197 7 -8 61 -105 120 -215 308 -573 683 -1230 822 -1443 69 -104 96 -138 137
-170 41 -32 24 -28 -91 22 -144 63 -278 159 -415 298 -26 27 -52 48 -58 48 -6
0 -9 3 -7 8 3 4 -35 47 -84 97 -49 49 -89 84 -89 78 0 -15 89 -109 100 -106 5
2 12 -6 15 -17 4 -11 11 -18 16 -15 5 4 9 1 9 -5 0 -14 12 -29 94 -108 37 -37
80 -80 95 -95 29 -32 107 -87 122 -87 6 0 7 -5 3 -12 -4 -6 -3 -8 3 -5 5 3 22
-5 38 -18 15 -14 43 -30 61 -37 19 -7 34 -16 34 -20 0 -4 7 -8 16 -8 8 0 12
-4 9 -10 -3 -5 0 -7 8 -4 8 3 18 1 22 -5 3 -6 15 -11 26 -11 10 0 19 -4 19 -9
0 -5 12 -11 28 -14 15 -4 34 -11 42 -17 13 -9 13 -11 0 -20 -9 -6 -10 -10 -3
-10 6 0 15 4 18 10 3 6 14 10 23 10 15 0 15 -2 2 -10 -11 -7 -6 -10 20 -10 24
0 31 -3 21 -9 -11 -7 -10 -11 7 -20 28 -15 35 -14 28 4 -3 8 -1 15 4 15 6 0
10 -4 10 -10 0 -5 15 -10 32 -10 l32 0 -24 -17 c-16 -11 -25 -13 -28 -5 -2 6
-10 8 -18 5 -7 -3 -27 0 -44 5 -18 7 -30 7 -30 2 0 -5 12 -12 28 -16 62 -13
68 -23 27 -42 -31 -14 -55 -15 -55 -3 0 12 37 24 50 16 5 -3 10 -2 10 3 0 13
-54 23 -59 11 -1 -6 -9 -2 -15 7 -7 9 -18 14 -24 10 -17 -10 -15 -26 4 -26 11
0 14 -5 10 -16 -3 -9 -6 -27 -6 -40 0 -16 -6 -24 -18 -24 -10 0 -23 -5 -30
-12 -8 -8 -15 -8 -25 0 -16 13 -57 5 -57 -12 0 -7 -19 -19 -42 -27 -41 -15
-43 -17 -40 -55 l3 -39 -20 24 -19 25 -11 -39 c-11 -41 -6 -59 9 -35 13 20 12
8 0 -25 -6 -17 -16 -25 -24 -22 -8 3 -16 -2 -19 -13 -3 -12 1 -21 12 -23 12
-4 11 -5 -5 -6 -11 0 -24 3 -30 9 -5 5 -15 6 -23 1 -17 -11 70 -31 102 -24 15
4 19 2 12 -5 -5 -5 -34 -13 -63 -17 -46 -6 -51 -5 -46 10 5 13 2 15 -22 10
-16 -3 -23 -2 -16 1 6 3 12 9 12 13 0 7 -6 9 -42 12 -7 1 -22 -2 -32 -7 -13
-5 -17 -4 -13 3 4 7 0 10 -10 8 -10 -2 -27 -4 -38 -5 -49 -5 320 -106 555
-154 311 -62 459 -80 825 -102 801 -47 1487 41 2180 279 244 84 571 245 813
400 46 29 60 43 50 49 -10 7 -10 8 2 7 29 -3 38 1 99 46 41 31 59 49 55 60 -4
8 -13 15 -22 15 -8 0 -12 -3 -9 -6 4 -4 -3 -15 -15 -25 -27 -24 -36 -24 -14 0
9 10 14 25 10 35 -5 12 -2 15 10 10 9 -3 16 -2 16 4 0 6 -6 13 -12 15 -8 3 -5
6 5 6 11 1 22 -10 28 -29 6 -16 13 -30 16 -30 5 0 53 37 118 92 11 9 31 26 45
37 14 12 19 20 10 19 -8 -2 -18 -7 -22 -13 -5 -6 -8 -5 -8 3 0 7 -4 11 -10 7
-5 -3 -7 -12 -3 -20 4 -11 0 -14 -13 -9 -16 5 -16 4 -4 -5 11 -8 12 -11 2 -11
-7 0 -25 -13 -39 -30 -13 -16 -30 -30 -35 -30 -6 0 -3 10 8 23 10 12 12 16 4
10 -21 -19 -29 -16 -23 10 4 18 3 19 -6 7 -6 -8 -8 -23 -5 -34 4 -12 2 -16 -5
-12 -7 5 -8 1 -4 -10 4 -12 3 -15 -5 -10 -7 4 -12 13 -12 21 0 19 -38 29 -56
14 -8 -6 -18 -8 -22 -4 -4 4 -1 10 6 12 6 3 12 18 12 34 0 28 -1 29 -50 29
-39 0 -52 4 -60 20 -6 11 -20 20 -30 20 -11 0 -20 4 -20 9 0 5 -9 11 -20 14
-11 3 -20 11 -20 19 0 8 -16 21 -36 28 -20 8 -40 22 -45 32 -13 25 -39 23 -39
-3 0 -19 -4 -21 -31 -15 -17 3 -35 6 -40 6 -24 0 -5 22 31 36 43 17 50 28 24
38 -11 4 -15 14 -12 31 4 21 1 25 -18 25 -12 0 -31 3 -41 7 -14 5 -13 2 5 -14
38 -34 22 -73 -29 -73 -22 0 -26 4 -22 21 5 17 2 20 -22 17 -33 -4 -47 21 -17
29 13 3 18 11 15 19 -6 16 -43 19 -43 4 0 -5 -9 -10 -20 -10 -24 0 -26 15 -4
24 21 8 10 20 -19 23 -48 3 -102 17 -109 27 -5 8 -14 7 -29 -2 -19 -12 -21
-12 -16 1 3 9 -1 17 -13 20 -11 3 -19 2 -18 -2 2 -20 -4 -32 -14 -29 -25 5
-58 -21 -51 -40 6 -14 4 -15 -8 -5 -13 10 -19 9 -35 -5 -24 -22 -111 -82 -119
-82 -3 0 -15 -9 -27 -20 -12 -11 -28 -20 -35 -20 -8 0 -11 -5 -7 -12 5 -7 3
-8 -6 -3 -7 4 -15 3 -19 -2 -12 -17 -69 -53 -85 -53 -9 0 -16 -4 -16 -10 0 -5
-4 -10 -10 -10 -21 0 -9 20 15 26 14 3 25 10 25 15 0 5 6 9 13 9 24 0 62 39
50 51 -7 7 -15 5 -26 -5 -9 -9 -18 -16 -21 -16 -3 0 -24 -13 -48 -29 -59 -39
-130 -78 -304 -165 -549 -274 -1214 -423 -1724 -386 -261 19 -278 31 -70 50
215 19 491 70 680 126 937 279 1660 758 2195 1454 125 162 336 484 399 608 39
78 35 102 -26 157 -28 25 -65 55 -81 67 l-30 22 7 -28 c6 -25 5 -27 -7 -15
-21 20 -63 50 -102 74 -36 22 -184 119 -200 132 -6 4 -26 17 -45 27 -19 10
-46 29 -60 41 -40 36 -196 136 -310 200 -58 32 -121 68 -140 80 -19 12 -78 45
-131 73 -89 48 -103 60 -180 154 -46 56 -104 124 -129 152 -82 93 -135 157
-138 167 -11 29 -72 -30 -72 -68 0 -10 23 -55 50 -101 28 -46 50 -85 50 -88 0
-3 11 -20 25 -38 14 -18 25 -35 25 -38 0 -3 32 -61 72 -129 39 -68 87 -153
105 -189 18 -36 55 -87 81 -115 53 -56 108 -122 167 -200 22 -29 55 -71 73
-94 19 -22 28 -41 21 -41 -7 0 -51 24 -98 53 -47 29 -93 57 -101 61 -8 4 -24
12 -35 19 -11 7 -121 72 -245 146 -124 74 -270 161 -325 194 -94 56 -127 87
-527 486 -235 234 -434 427 -441 429 -8 2 -122 -109 -253 -245z m281 -53 c50
-315 82 -594 91 -805 l6 -140 -46 -50 c-25 -27 -52 -57 -59 -65 -7 -8 -83 -92
-168 -185 -85 -94 -192 -213 -239 -265 -76 -85 -170 -184 -344 -363 -43 -45
-57 -55 -51 -37 4 14 15 36 25 50 54 79 274 508 350 685 5 11 21 47 36 80 43
97 150 384 174 465 12 41 25 84 30 95 10 26 50 164 66 235 8 30 25 102 40 160
14 58 30 128 35 155 17 90 20 98 29 89 5 -5 16 -52 25 -104z"/>
<path d="M9051 6870 c-2 -247 -15 -399 -51 -560 -5 -25 -16 -74 -23 -110 -7
-36 -16 -72 -19 -80 -22 -55 -27 -81 -15 -77 32 10 100 290 117 483 12 130 11
521 0 569 -4 17 -8 -85 -9 -225z"/>
<path d="M7834 5347 c-21 -23 -151 -142 -204 -187 -30 -25 -69 -58 -87 -74
-19 -16 -91 -69 -161 -118 -70 -49 -128 -93 -130 -99 -6 -15 25 -10 42 6 8 8
19 15 25 15 6 0 11 5 11 11 0 5 5 7 10 4 6 -3 10 -1 10 4 0 6 5 11 11 11 10 0
67 39 103 73 11 9 24 17 28 17 5 0 7 4 3 9 -3 5 4 12 15 16 11 3 20 11 20 17
0 6 3 9 6 5 3 -3 24 11 45 31 22 20 50 43 61 51 23 17 183 175 207 204 15 19
2 23 -15 4z"/>
</g>
</svg>
